<svg xmlns="http://www.w3.org/2000/svg" width="273.133" height="206.36" viewBox="0 0 273.133 206.36">
  <g id="undraw_chore_list_re_2lq8" transform="translate(0 0)">
    <path id="Path_2429" data-name="Path 2429" d="M493.1,577.229a12.365,12.365,0,1,1-24.706,0c0-.161,0-.322.009-.482a12.363,12.363,0,1,1,24.7.482Z" transform="translate(-380.523 -434.25)" fill="#3a1b74"/>
    <path id="Path_2431" data-name="Path 2431" d="M483.971,596.6l-3.558-4.744.843-.632,2.9,3.865,11.412-9.336.667.815Z" transform="translate(-388.092 -447.899)" fill="#fff"/>
    <rect id="Rectangle_256" data-name="Rectangle 256" width="273.133" height="0.74" transform="translate(0 205.62)" fill="#e6e6e6"/>
    <g id="Group_24" data-name="Group 24" transform="translate(172.32 0)">
      <path id="Path_552" data-name="Path 552" d="M704.151,382.252a5.263,5.263,0,0,1,.735.41l23.366-9.973.834-6.155,9.337-.057L737.87,380.6l-30.841,8.157a5.529,5.529,0,0,1-.234.629,5.332,5.332,0,1,1-2.646-7.128Z" transform="translate(-696.635 -309.75)" fill="#a0616a"/>
      <path id="Path_553" data-name="Path 553" d="M802.7,712.926h-6.387l-3.038-24.635h9.426Z" transform="translate(-757.522 -512.497)" fill="#a0616a"/>
      <path id="Path_554" data-name="Path 554" d="M775.955,749.939h12.318v7.753H768.2a7.756,7.756,0,0,1,7.756-7.756h0Z" transform="translate(-741.721 -551.334)" fill="#2f2e41"/>
      <path id="Path_555" data-name="Path 555" d="M865.807,708.253l-6.356.625-5.439-24.219,9.381-.922Z" transform="translate(-795.784 -509.629)" fill="#a0616a"/>
      <path id="Path_556" data-name="Path 556" d="M844.037,745.937l12.256-1.207.76,7.717-19.972,1.967a7.754,7.754,0,0,1,6.956-8.477Z" transform="translate(-785.093 -548.054)" fill="#2f2e41"/>
      <circle id="Ellipse_84" data-name="Ellipse 84" cx="12.795" cy="12.795" r="12.795" transform="translate(34.165 5.063)" fill="#a0616a"/>
      <path id="Path_557" data-name="Path 557" d="M769.232,588.078a2.331,2.331,0,0,1-2.3-1.928c-3.3-18.348-14.112-78.353-14.37-80.017a.739.739,0,0,1-.009-.115v-4.475a.777.777,0,0,1,.145-.454l1.427-2a.77.77,0,0,1,.6-.326c8.14-.381,34.792-1.5,36.08.109h0c1.293,1.615.834,6.516.729,7.481l.005.1,11.975,76.581a2.351,2.351,0,0,1-1.936,2.675l-7.479,1.232a2.355,2.355,0,0,1-2.618-1.611c-2.313-7.392-10.07-32.257-12.758-41.879a.259.259,0,0,0-.511.074c.134,9.172.459,32.572.573,40.655l.012.871a2.354,2.354,0,0,1-2.132,2.363l-7.212.653q-.109.01-.218.008Z" transform="translate(-731.864 -392.632)" fill="#2f2e41"/>
      <path id="Path_99" data-name="Path 99" d="M771.433,307.581a10.7,10.7,0,0,0-4.336,6.253,59.227,59.227,0,0,0-2.544,14.149l-.811,14.378-10.031,38.119c8.695,7.356,13.709,5.684,25.413-.333s13.041,2.006,13.041,2.006l2.34-32.434,3.344-35.442a15.712,15.712,0,0,0-2.533-2.435,25.871,25.871,0,0,0-22.111-4.689Z" transform="translate(-732.594 -271.896)" fill="#3a1b74"/>
      <path id="Path_558" data-name="Path 558" d="M780.268,399.062a5.485,5.485,0,0,1,.781.365l23.1-11.565.383-6.265,9.531-.657.511,14.282L783.7,405.432a5.47,5.47,0,1,1-3.435-6.372Z" transform="translate(-744.686 -318.862)" fill="#a0616a"/>
      <path id="Path_101" data-name="Path 101" d="M851.747,326.958c5.684,2.006,6.686,23.743,6.686,23.743-6.688-3.678-14.713,2.341-14.713,2.341s-1.672-5.685-3.678-13.041a12.779,12.779,0,0,1,2.675-12.038S846.063,324.951,851.747,326.958Z" transform="translate(-786.659 -284.419)" fill="#3a1b74"/>
      <path id="Path_102" data-name="Path 102" d="M813.246,234.4c-1.594-1.275-3.769,1.042-3.769,1.042L808.2,223.965s-7.971.955-13.073-.319-5.9,4.625-5.9,4.625a40.936,40.936,0,0,1-.159-7.174c.319-2.87,4.464-5.739,11.8-7.652s11.16,6.377,11.16,6.377C817.131,222.37,814.842,235.675,813.246,234.4Z" transform="translate(-754.815 -213.157)" fill="#2f2e41"/>
    </g>
    <path id="Caminho_74" data-name="Caminho 74" d="M390.062,258.709a1.15,1.15,0,1,0,0,2.3H474a1.15,1.15,0,1,0,0-2.3Z" transform="translate(-330.446 -241.855)" fill="#ccc"/>
    <path id="Caminho_75" data-name="Caminho 75" d="M390.058,277.351a1.15,1.15,0,0,0,0,2.3h53.065a1.15,1.15,0,1,0,0-2.3Z" transform="translate(-330.442 -253.6)" fill="#ccc"/>
    <path id="Path_2429-2" data-name="Path 2429" d="M599.569,226.2a4.84,4.84,0,1,1-9.67,0c0-.063,0-.126,0-.189a4.839,4.839,0,1,1,9.667.189Z" transform="translate(-457.07 -218.135)" fill="#3a1b74"/>
    <path id="Path_2431-2" data-name="Path 2431" d="M595.994,233.785l-1.393-1.857.33-.248,1.135,1.513,4.467-3.654.261.319Z" transform="translate(-460.032 -223.478)" fill="#fff"/>
    <path id="Caminho_76" data-name="Caminho 76" d="M390.062,372.709a1.15,1.15,0,1,0,0,2.3H474a1.15,1.15,0,1,0,0-2.3Z" transform="translate(-330.446 -313.676)" fill="#ccc"/>
    <path id="Caminho_77" data-name="Caminho 77" d="M390.058,391.351a1.15,1.15,0,1,0,0,2.3h53.065a1.15,1.15,0,1,0,0-2.3Z" transform="translate(-330.442 -325.421)" fill="#ccc"/>
    <path id="Path_2429-3" data-name="Path 2429" d="M598.569,340.2a4.84,4.84,0,1,1-9.67,0c0-.063,0-.126,0-.189a4.839,4.839,0,1,1,9.667.189Z" transform="translate(-456.44 -289.957)" fill="#3a1b74"/>
    <path id="Path_2431-3" data-name="Path 2431" d="M594.994,347.785l-1.393-1.857.33-.248,1.135,1.513,4.467-3.654.261.319Z" transform="translate(-459.402 -295.299)" fill="#fff"/>
    <path id="Caminho_78" data-name="Caminho 78" d="M390.062,486.709a1.15,1.15,0,1,0,0,2.3H474a1.15,1.15,0,1,0,0-2.3Z" transform="translate(-330.446 -385.498)" fill="#ccc"/>
    <path id="Caminho_79" data-name="Caminho 79" d="M390.058,505.351a1.15,1.15,0,1,0,0,2.3h53.065a1.15,1.15,0,1,0,0-2.3Z" transform="translate(-330.442 -397.242)" fill="#ccc"/>
    <path id="Path_2429-4" data-name="Path 2429" d="M598.569,454.2a4.84,4.84,0,1,1-9.67,0c0-.063,0-.126,0-.189a4.839,4.839,0,1,1,9.667.189Z" transform="translate(-456.44 -361.778)" fill="#3a1b74"/>
    <path id="Path_2431-4" data-name="Path 2431" d="M594.994,461.785l-1.393-1.857.33-.248,1.135,1.513,4.467-3.654.261.319Z" transform="translate(-459.402 -367.121)" fill="#fff"/>
  </g>
</svg>
