<svg xmlns="http://www.w3.org/2000/svg" width="259" height="183.18" viewBox="0 0 259 183.18">
  <g id="undraw_personal_training_0dqn_1_" data-name="undraw_personal_training_0dqn (1)" transform="translate(0 0)">
    <rect id="Retângulo_10" data-name="Retângulo 10" width="2.292" height="19.766" transform="matrix(0.543, -0.84, 0.84, 0.543, 136.663, 82.719)" fill="#2f2e41"/>
    <ellipse id="Elipse_3" data-name="Elipse 3" cx="6.875" cy="1.719" rx="6.875" ry="1.719" transform="matrix(0.543, -0.84, 0.84, 0.543, 148.715, 97.325)" fill="#2f2e41"/>
    <ellipse id="Elipse_4" data-name="Elipse 4" cx="6.875" cy="1.719" rx="6.875" ry="1.719" transform="matrix(0.543, -0.84, 0.84, 0.543, 132.11, 86.599)" fill="#2f2e41"/>
    <ellipse id="Elipse_5" data-name="Elipse 5" cx="66.154" cy="5.046" rx="66.154" ry="5.046" transform="translate(126.692 173.088)" fill="#e6e6e6"/>
    <ellipse id="Elipse_6" data-name="Elipse 6" cx="66.154" cy="5.046" rx="66.154" ry="5.046" transform="translate(0 148.905)" fill="#e6e6e6"/>
    <path id="Caminho_41" data-name="Caminho 41" d="M954.759,494.157a86.346,86.346,0,0,1-4.034,23.869c-.056.179-.115.356-.174.535H935.5c.016-.161.032-.34.048-.535,1-11.539,6.79-81.765-.129-93.775C936.023,425.226,955.927,457.494,954.759,494.157Z" transform="translate(-707.496 -340.217)" fill="#e6e6e6"/>
    <path id="Caminho_42" data-name="Caminho 42" d="M969.348,621.176c-.126.179-.257.359-.391.535H957.665c.086-.153.185-.332.3-.535,1.866-3.367,7.387-13.433,12.513-23.869,5.508-11.215,10.562-22.855,10.136-27.068C980.745,571.189,984.557,600.155,969.348,621.176Z" transform="translate(-723.214 -443.367)" fill="#e6e6e6"/>
    <path id="Caminho_43" data-name="Caminho 43" d="M637.78,618a43.831,43.831,0,0,0,2.047,12.116c.029.091.058.181.088.272h7.641c-.008-.081-.016-.172-.024-.272-.509-5.857-3.447-41.5.065-47.6C647.29,583.009,637.187,599.388,637.78,618Z" transform="translate(-497.176 -452.04)" fill="#e6e6e6"/>
    <path id="Caminho_44" data-name="Caminho 44" d="M625.392,682.471c.064.091.13.182.2.272h5.732c-.043-.077-.094-.168-.152-.272-.947-1.709-3.75-6.819-6.351-12.116-2.8-5.692-5.361-11.6-5.145-13.739C619.607,657.1,617.673,671.8,625.392,682.471Z" transform="translate(-484.215 -504.399)" fill="#e6e6e6"/>
    <path id="Caminho_45" data-name="Caminho 45" d="M650.081,399.807s-12.765,12.509-7.4,14.041,11.488-11.488,11.488-11.488Z" transform="translate(-499.725 -322.945)" fill="#a0616a"/>
    <path id="Caminho_46" data-name="Caminho 46" d="M552.214,405.493l-1.532,7.148,11.488.511-1.787-7.659Z" transform="translate(-389.094 -286.508)" fill="#a0616a"/>
    <path id="Caminho_47" data-name="Caminho 47" d="M675.758,556.007l-1.532,7.148,11.488.511-1.787-7.659Z" transform="translate(-476.386 -392.856)" fill="#a0616a"/>
    <path id="Caminho_48" data-name="Caminho 48" d="M707.155,380.667l1.021,4.085s-28.338-5.616-26.806,8.68,8.169,28.082,8.169,28.082-.511,4.6.511,5.361,0,3.319,0,3.319,9.446,1.276,9.7-1.021a16.012,16.012,0,0,0-.255-4.6s.511,0,0-2.553-2.573-23.142-4.1-25.95c0,0,13.551,10.377,20.7,9.1,0,0-1.021,10.212,3.063,23.742s4.085,15.062,4.085,15.062,4.851,25.785,3.574,28.848l-.255,1.276H736s-.766-13.531,0-15.318.766-17.1-3.574-24.763c-3.073-5.424-2.5-21.15-.82-27.366a32.152,32.152,0,0,0,.941-14.581c-.885-5.715-3.528-8.7-6.758-11.41Z" transform="translate(-527.951 -309.422)" fill="#2f2e41"/>
    <circle id="Elipse_7" data-name="Elipse 7" cx="9.191" cy="9.191" r="9.191" transform="translate(177.544 14.442)" fill="#a0616a"/>
    <path id="Caminho_49" data-name="Caminho 49" d="M786.787,231.372s2.808,8.169,2.553,9.7,8.169-3.064,8.169-3.064-3.319-8.169-2.3-10.467Z" transform="translate(-602.478 -201.229)" fill="#a0616a"/>
    <path id="Caminho_50" data-name="Caminho 50" d="M774.633,253.643l-8.935,3.574.511,3.064s-.766,1.021-.511,1.532-3.319,2.553-2.808,3.319-3.064,3.829-2.808,4.6-8.169,5.361-3.574,14.3a10.957,10.957,0,0,1,2.084,6.76q-.016.193-.042.388c-.511,3.829,19.4-.511,19.4-.511v-4.34s1.787-.766,1.532-4.085-1.787-1.787,0-3.574,1.787-1.532,1.532-3.064c-.1-.612-.122-2.811-.11-5.233a23.23,23.23,0,0,0-4.74-14.17h0Z" transform="translate(-580.112 -219.671)" fill="#3a1b74"/>
    <path id="Caminho_51" data-name="Caminho 51" d="M706.7,273.663l-16.594,17.36L665.854,310.17l5.361,4.34,44.676-29.869S719.721,268.3,706.7,273.663Z" transform="translate(-517.03 -233.053)" fill="#3a1b74"/>
    <path id="Caminho_52" data-name="Caminho 52" d="M670.983,550.992s-1.787-3.063-3.063-2.042l-8.935,7.148s-15.828,4.6-.51,8.169c0,0,8.425,1.276,10.212,0a5.922,5.922,0,0,1,5.361-.511c.766.511,10.467-.255,10.467-2.3s-5.35-10.968-5.35-10.968S676.089,554.056,670.983,550.992Z" transform="translate(-507.097 -428.178)" fill="#2f2e41"/>
    <path id="Caminho_53" data-name="Caminho 53" d="M794.527,701.506s-1.787-3.064-3.063-2.042l-8.935,7.148s-15.828,4.6-.511,8.169c0,0,8.425,1.276,10.212,0a5.922,5.922,0,0,1,5.361-.511c.766.511,10.467-.255,10.467-2.3s-5.351-10.968-5.351-10.968S799.633,704.57,794.527,701.506Z" transform="translate(-594.39 -534.526)" fill="#2f2e41"/>
    <path id="Caminho_54" data-name="Caminho 54" d="M757.517,180.764s1.554-13.66,14.844-9.781c0,0,9.4-1.912,12.723,9.831l3.371,12.312-1.543-.8-.682,1.57-2.462.674-1.1-2.081-.463,2.562-17,3.438a26.42,26.42,0,0,0,5.71-16.194l-1.694,1.86Z" transform="translate(-581.796 -160.775)" fill="#2f2e41"/>
    <rect id="Retângulo_11" data-name="Retângulo 11" width="21.258" height="26.51" transform="translate(63.139 8.881)" fill="#2f2e41"/>
    <path id="Caminho_55" data-name="Caminho 55" d="M148.371,451.681l-2.9,10.668,4.832,3.556,1.288-.97,2.255-10.992Z" transform="translate(-102.786 -319.143)" fill="#ffb8b8"/>
    <path id="Caminho_56" data-name="Caminho 56" d="M277.062,448.376l-.966,12.931h6.12V449.346Z" transform="translate(-195.08 -316.808)" fill="#ffb8b8"/>
    <path id="Caminho_57" data-name="Caminho 57" d="M213.528,169.635v7.759l11.918,1.94,10.307-4.2-1.933-4.85Z" transform="translate(-150.872 -119.858)" fill="#ffb8b8"/>
    <path id="Caminho_58" data-name="Caminho 58" d="M338.147,318.971l-10.307-1.94-2.577,21.014-6.442,26.186s-9.663,22.307-8.374,27.479l.644,1.616-.644,2.91,6.442,2.586,2.577-4.2s1.933,2.91,5.154-3.233,16.749-44.29,16.749-44.29l2.255,6.466a13.371,13.371,0,0,0-.322,6.142c.644,3.233,1.288,13.255,1.288,13.255s-3.543,17.457,1.288,18.751l.966,3.879,6.764.647,1.288-3.879s6.442-2.263,4.831-13.578-2.255-48.493-2.255-48.493l-6.345-15.7Z" transform="translate(-265.828 -262.729)" fill="#2f2e41"/>
    <path id="Caminho_59" data-name="Caminho 59" d="M278.287,621.243s-1.61-1.293-2.255-.97-7.408,9.052-7.408,9.052-7.086,5.5-1.933,6.142,19.326-6.466,19.326-8.082-2.978-5.665-2.978-5.665S280.864,623.506,278.287,621.243Z" transform="translate(-233.669 -478.683)" fill="#2f2e41"/>
    <path id="Caminho_60" data-name="Caminho 60" d="M429.9,620.242s5.8-.361,6.764.628.644,5.838.644,5.838.644,8.729-4.509,8.729-3.865-5.819-3.865-5.819Z" transform="translate(-349.531 -478.652)" fill="#2f2e41"/>
    <ellipse id="Elipse_8" data-name="Elipse 8" cx="8.052" cy="8.082" rx="8.052" ry="8.082" transform="translate(66.522 5.163)" fill="#ffb8b8"/>
    <path id="Caminho_61" data-name="Caminho 61" d="M377.044,200.083s4.509,5.5-4.509,9.7,6.442,21.66,6.442,21.66,18.037-6.789,16.427-20.044c0,0-10.951-1.94-8.374-10.992Z" transform="translate(-307.785 -181.827)" fill="#ffb8b8"/>
    <path id="Caminho_62" data-name="Caminho 62" d="M354.66,231.9s-7.408-.97-7.73,5.173,0,21.014,0,21.014-3.221,12.931-1.61,24.247c0,0-1.933,13.255,3.221,12.608s1.288-13.578,1.288-13.578l2.255-21.014-.966-15.518,4.187-9.375Z" transform="translate(-290.233 -204.268)" fill="#ffb8b8"/>
    <path id="Caminho_63" data-name="Caminho 63" d="M445.319,236.9s7.024-.135,7.346,5.038-2.255,21.014-2.255,21.014l-3.865,1.94L443,253.9Z" transform="translate(-359.57 -207.841)" fill="#ffb8b8"/>
    <path id="Caminho_64" data-name="Caminho 64" d="M443.768,325.273l-.644,1.616,1.933,4.849s-7.73,6.142-7.086,7.436,4.187-1.616,4.187-1.616l5.154,2.586s4.187-4.526,2.255-8.729a48.875,48.875,0,0,1-2.679-6.994S444.09,324.3,443.768,325.273Z" transform="translate(-355.988 -269.677)" fill="#ffb8b8"/>
    <path id="Caminho_65" data-name="Caminho 65" d="M366.575,228.178l-.966,10.668s-4.509,4.526.644,10.668l-.644,4.849s11.918-.647,14.172,0,9.218-.521,9.218-.521l.123-3.682a16.663,16.663,0,0,0,2.255-11.315c-.966-6.789,0-9.052,0-9.052l-2.255-.323s-1.449,9.86-11.434,10.83c0,0-12.4,1.132-8.858-12.123Z" transform="translate(-303.597 -201.678)" fill="#3a1b74"/>
    <path id="Caminho_66" data-name="Caminho 66" d="M360.254,138.02s-8.375-.521-10.307,4.706a19.767,19.767,0,0,1-5.315,7.971,8.6,8.6,0,0,0-2.664,10.352s-8.287,5.59-2.812,10.555c0,0-.322,4.966,2.9,8.363,0,0,2.577,1.307,1.611,2.091s6.442.261,5.8-6.795a17.294,17.294,0,0,1,3.7-12.027s-4.187-9.149-2.255-12.285c1.173-1.9,1.677-3.324,2.651-4.146a12.241,12.241,0,0,0,1.5-1.473,3.462,3.462,0,0,1,3.736-1.169,4.931,4.931,0,0,1,3.543,3.136s2.094,5.619,5.637,8.232-2.738,7.187-2.738,7.187,1.092,5.385,3.928,8.573-.817,5.967-1.029,6.324c-.483.816-2.413,5.965,5.558,5.988a23.558,23.558,0,0,1,4.427-6.249c2.577-2.352.644-9.147.644-9.147s3.865-2.352-.322-8.1c0,0,1.288-5.227-2.255-8.624C376.2,151.481,371.206,136.19,360.254,138.02Z" transform="translate(-284.875 -137.868)" fill="#2f2e41"/>
    <ellipse id="Elipse_9" data-name="Elipse 9" cx="0.805" cy="1.293" rx="0.805" ry="1.293" transform="translate(65.072 11.79)" fill="#ffb8b8"/>
    <rect id="Retângulo_12" data-name="Retângulo 12" width="19.766" height="2.292" transform="translate(7.65 146.433)" fill="#2f2e41"/>
    <ellipse id="Elipse_10" data-name="Elipse 10" cx="1.719" cy="6.875" rx="1.719" ry="6.875" transform="translate(25.698 140.704)" fill="#2f2e41"/>
    <ellipse id="Elipse_11" data-name="Elipse 11" cx="1.719" cy="6.875" rx="1.719" ry="6.875" transform="translate(5.931 140.704)" fill="#2f2e41"/>
    <rect id="Retângulo_13" data-name="Retângulo 13" width="19.766" height="2.292" transform="translate(2.958 146.433)" fill="#2f2e41"/>
    <ellipse id="Elipse_12" data-name="Elipse 12" cx="1.719" cy="6.875" rx="1.719" ry="6.875" transform="translate(21.005 140.704)" fill="#2f2e41"/>
    <ellipse id="Elipse_13" data-name="Elipse 13" cx="1.719" cy="6.875" rx="1.719" ry="6.875" transform="translate(1.239 140.704)" fill="#2f2e41"/>
    <rect id="Retângulo_14" data-name="Retângulo 14" width="19.766" height="2.292" transform="translate(227.827 169.534)" fill="#2f2e41"/>
    <ellipse id="Elipse_14" data-name="Elipse 14" cx="1.719" cy="6.875" rx="1.719" ry="6.875" transform="translate(245.874 163.804)" fill="#2f2e41"/>
    <ellipse id="Elipse_15" data-name="Elipse 15" cx="1.719" cy="6.875" rx="1.719" ry="6.875" transform="translate(226.108 163.804)" fill="#2f2e41"/>
  </g>
</svg>
